<svg xmlns="http://www.w3.org/2000/svg" viewBox="0 0 64 64">
  <rect width="64" height="64" rx="12" fill="#23241f"/>
  <path d="M8 15h42a3 3 0 0 1 3 3v2H5v-2a3 3 0 0 1 3-3Z" fill="#f2f2f0"/>
  <path d="M9 20h40v23H9z" fill="#f2f2f0"/>
  <path d="M14 24h30v11H14z" fill="#23241f"/>
  <path d="M14 38h30v2H14z" fill="#23241f"/>
  <path d="m49 38 10 5h-3l-7-2Z" fill="#f2f2f0"/>
  <circle cx="59" cy="43" r="2" fill="#f2f2f0"/>
  <circle cx="20" cy="44" r="7" fill="#f2f2f0"/>
  <circle cx="20" cy="44" r="3" fill="#23241f"/>
  <circle cx="39" cy="44" r="7" fill="#f2f2f0"/>
  <circle cx="39" cy="44" r="3" fill="#23241f"/>
</svg>
